<svg xmlns="http://www.w3.org/2000/svg" width="160.575" height="98.524"><defs><clipPath clipPathUnits="userSpaceOnUse" id="prefix__a"><path d="M0 0h1536v1536H0z"/></clipPath></defs><g fill="#fff"><g clip-path="url(#prefix__a)" transform="translate(-124.47 -142.71) scale(.32552)"><path d="M621.938 596.371l-178.129-79.879 27.484-16.648zM709.34 594.73l90.723-56.613 14.152 9.992zM696.02 627.184c0 12.89-24.954 52.445-24.954 52.445s-21.64-39.555-21.64-52.445c0-12.848 10.414-23.297 23.281-23.297 12.898 0 23.313 10.449 23.313 23.297"/></g><path d="M91.509 73.333c-3.493-7.294-4.205-9.319-4.214-11.972-.008-2.508.346-3.416 1.988-5.09 1.425-1.453 3.076-2.125 5.22-2.125 2.14 0 3.8.67 5.248 2.119 2.126 2.126 2.631 4.755 1.528 7.96-1.097 3.19-6.707 13.701-7.311 13.701-.143 0-1.25-2.067-2.46-4.593zM110.18 48.76c.158-.14 6.019-3.817 13.025-8.171l12.739-7.918 2.1 1.448c1.156.797 1.997 1.544 1.869 1.66-.283.256-29.515 13.234-29.81 13.234-.115 0-.08-.114.077-.253zM47.816 37.764A18100.122 18100.122 0 0120.97 25.672c-.567-.267-.154-.594 3.666-2.901l4.305-2.6 14.109 9.04 22.973 14.723c4.876 3.125 8.67 5.668 8.433 5.651-.238-.016-12.226-5.336-26.64-11.82z"/></g></svg>