<?xml version="1.0" encoding="UTF-8" standalone="no"?>
<svg
   xmlns:dc="http://purl.org/dc/elements/1.1/"
   xmlns:cc="http://creativecommons.org/ns#"
   xmlns:rdf="http://www.w3.org/1999/02/22-rdf-syntax-ns#"
   xmlns:svg="http://www.w3.org/2000/svg"
   xmlns="http://www.w3.org/2000/svg"
   xmlns:sodipodi="http://sodipodi.sourceforge.net/DTD/sodipodi-0.dtd"
   xmlns:inkscape="http://www.inkscape.org/namespaces/inkscape"
   version="1.1"
   id="svg969"
   xml:space="preserve"
   width="493.15918"
   height="203.25879"
   viewBox="0 0 493.15918 203.25879"
   sodipodi:docname="logo 2.svg"
   inkscape:version="1.0.2 (e86c8708, 2021-01-15)"><metadata
     id="metadata975"><rdf:RDF><cc:Work
         rdf:about=""><dc:format>image/svg+xml</dc:format><dc:type
           rdf:resource="http://purl.org/dc/dcmitype/StillImage" /><dc:title /></cc:Work></rdf:RDF></metadata><defs
     id="defs973"><clipPath
       clipPathUnits="userSpaceOnUse"
       id="clipPath993"><path
         d="M 0,0 H 1536 V 1536 H 0 Z"
         id="path991" /></clipPath></defs><sodipodi:namedview
     pagecolor="#ffffff"
     bordercolor="#666666"
     borderopacity="1"
     objecttolerance="10"
     gridtolerance="10"
     guidetolerance="10"
     inkscape:pageopacity="0"
     inkscape:pageshadow="2"
     inkscape:window-width="1716"
     inkscape:window-height="1381"
     id="namedview971"
     showgrid="false"
     inkscape:zoom="1.1739077"
     inkscape:cx="63.645539"
     inkscape:cy="117.63111"
     inkscape:window-x="1721"
     inkscape:window-y="28"
     inkscape:window-maximized="0"
     inkscape:current-layer="g979"
     lock-margins="true"
     fit-margin-top="20"
     fit-margin-left="20"
     fit-margin-right="20"
     fit-margin-bottom="20"
     inkscape:document-rotation="0" /><g
     id="g977"
     inkscape:groupmode="layer"
     inkscape:label="logo_horizon17_negatyw"
     transform="matrix(1.3333333,0,0,1.3333333,-7.1009113,-142.70963)"><g
       id="g979"
       transform="scale(0.24414063)"><path
         d="M 83.254,872.254 V 652.059 h 37.172 v 95.464 h 109.308 v -95.464 h 37.172 V 872.254 H 229.734 V 782.176 H 120.426 v 90.078 z"
         style="fill:#00adef;fill-opacity:1;fill-rule:nonzero;stroke:none"
         id="path983" /><g
         id="g985"><g
           id="g987"><g
             id="g989"
             clip-path="url(#clipPath993)"><g
               id="g995"><path
                 d="m 362.176,827.996 c 9.992,10.18 22.64,15.313 37.961,15.313 15.336,0 27.976,-5.133 37.984,-15.313 9.938,-10.156 14.938,-23.332 14.938,-39.523 0,-16.188 -5,-29.364 -14.938,-39.52 -10.008,-10.183 -22.648,-15.285 -37.984,-15.285 -15.321,0 -27.969,5.102 -37.961,15.285 -9.965,10.156 -14.946,23.332 -14.946,39.52 0,16.191 4.981,29.367 14.946,39.523 m 100.961,21.742 c -16.805,16.668 -37.801,25.028 -63,25.028 -25.184,0 -46.207,-8.36 -62.992,-25.028 -16.797,-16.691 -25.2,-37.117 -25.2,-61.265 0,-24.157 8.403,-44.59 25.2,-61.266 16.785,-16.691 37.808,-25.023 62.992,-25.023 25.199,0 46.195,8.332 63,25.023 16.797,16.676 25.199,37.109 25.199,61.266 0,24.148 -8.402,44.574 -25.199,61.265"
                 style="fill:#000000;fill-opacity:1;fill-rule:nonzero;stroke:none"
                 id="path997" /><path
                 d="m 616.238,737.77 c -17.429,0 -30.547,5.668 -39.375,17.011 -8.836,11.344 -13.23,26.563 -13.23,45.641 V 872.25 H 528.348 V 704.688 h 35.285 v 33.695 c 5.668,-10.5 13.379,-19.121 23.133,-25.856 9.765,-6.703 20.121,-10.156 31.05,-10.347 l 0.286,35.59 z"
                 style="fill:#000000;fill-opacity:1;fill-rule:nonzero;stroke:none"
                 id="path999" /><path
                 d="m 653.395,704.691 h 35.277 v 167.563 h -35.277 z"
                 style="fill:#000000;fill-opacity:1;fill-rule:nonzero;stroke:none"
                 id="path1001" /><path
                 d="m 734.348,735.547 v -30.242 h 131.054 v 31.804 l -94.207,104.59 h 99.215 v 30.555 H 728.047 v -34.34 l 91.672,-102.367 z"
                 style="fill:#000000;fill-opacity:1;fill-rule:nonzero;stroke:none"
                 id="path1003" /><path
                 d="m 947.125,827.996 c 9.957,10.18 22.621,15.313 37.949,15.313 15.356,0 27.989,-5.133 37.961,-15.313 9.981,-10.156 14.957,-23.332 14.957,-39.523 0,-16.188 -4.976,-29.364 -14.957,-39.52 -9.972,-10.183 -22.605,-15.285 -37.961,-15.285 -15.328,0 -27.992,5.102 -37.949,15.285 -9.957,10.156 -14.973,23.332 -14.973,39.52 0,16.191 5.016,29.367 14.973,39.523 m 100.961,21.742 c -16.824,16.668 -37.82,25.028 -63.012,25.028 -25.195,0 -46.195,-8.36 -62.972,-25.028 -16.797,-16.691 -25.227,-37.117 -25.227,-61.265 0,-24.157 8.43,-44.59 25.227,-61.266 16.777,-16.691 37.777,-25.023 62.972,-25.023 25.192,0 46.188,8.332 63.012,25.023 16.805,16.676 25.18,37.109 25.18,61.266 0,24.148 -8.375,44.574 -25.18,61.265"
                 style="fill:#000000;fill-opacity:1;fill-rule:nonzero;stroke:none"
                 id="path1005" /><path
                 d="m 1148.551,781.516 v 90.734 h -35.258 V 704.688 h 35.258 v 30.582 c 5.668,-10.325 13.5,-18.403 23.472,-24.297 9.985,-5.86 20.719,-8.793 32.293,-8.793 18.903,0 34.164,5.754 45.821,17.308 11.668,11.543 17.484,28.254 17.484,50.059 V 872.25 h -35.269 v -91.949 c 0,-30.91 -12.813,-46.324 -38.418,-46.324 -12.215,0 -22.813,4.043 -31.825,12.132 -9.043,8.055 -13.558,19.895 -13.558,35.407"
                 style="fill:#000000;fill-opacity:1;fill-rule:nonzero;stroke:none"
                 id="path1007" /><path
                 d="M 621.938,596.371 443.809,516.492 471.293,499.844 Z"
                 style="fill:#000000;fill-opacity:1;fill-rule:nonzero;stroke:none"
                 id="path1009" /><path
                 d="m 709.34,594.73 90.723,-56.613 14.152,9.992 z"
                 style="fill:#000000;fill-opacity:1;fill-rule:nonzero;stroke:none"
                 id="path1011" /><path
                 d="m 696.02,627.184 c 0,12.89 -24.954,52.445 -24.954,52.445 0,0 -21.64,-39.555 -21.64,-52.445 0,-12.848 10.414,-23.297 23.281,-23.297 12.898,0 23.313,10.449 23.313,23.297"
                 style="fill:#000000;fill-opacity:1;fill-rule:nonzero;stroke:none"
                 id="path1013" /><path
                 d="m 1286.277,584.199 h 57.895 v 143.004 h -30.711 V 611.402 h -27.184 z"
                 style="fill:#00adef;fill-opacity:1;fill-rule:nonzero;stroke:none"
                 id="path1015" /><path
                 d="m 1372.012,630.039 v -45.84 h 103.347 v 24.141 l -57.933,118.867 h -34.774 l 55.258,-115.613 h -36.012 v 18.445 z"
                 style="fill:#00adef;fill-opacity:1;fill-rule:nonzero;stroke:none"
                 id="path1017" /></g></g></g></g></g></g></svg>
