<svg xmlns="http://www.w3.org/2000/svg" width="493.159" height="203.259"><defs><clipPath clipPathUnits="userSpaceOnUse" id="prefix__a"><path d="M0 0h1536v1536H0z"/></clipPath></defs><path d="M20 141.227V69.55h12.1v31.076h35.582V69.549h12.1v71.678h-12.1v-29.322H32.1v29.322z" fill="#00adef"/><g clip-path="url(#prefix__a)" transform="translate(-7.1 -142.71) scale(.32552)"><path d="M362.176 827.996c9.992 10.18 22.64 15.313 37.961 15.313 15.336 0 27.976-5.133 37.984-15.313 9.938-10.156 14.938-23.332 14.938-39.523 0-16.188-5-29.364-14.938-39.52-10.008-10.183-22.648-15.285-37.984-15.285-15.321 0-27.969 5.102-37.961 15.285-9.965 10.156-14.946 23.332-14.946 39.52 0 16.191 4.981 29.367 14.946 39.523m100.961 21.742c-16.805 16.668-37.801 25.028-63 25.028-25.184 0-46.207-8.36-62.992-25.028-16.797-16.691-25.2-37.117-25.2-61.265 0-24.157 8.403-44.59 25.2-61.266 16.785-16.691 37.808-25.023 62.992-25.023 25.199 0 46.195 8.332 63 25.023 16.797 16.676 25.199 37.109 25.199 61.266 0 24.148-8.402 44.574-25.199 61.265M616.238 737.77c-17.429 0-30.547 5.668-39.375 17.011-8.836 11.344-13.23 26.563-13.23 45.641v71.828h-35.285V704.688h35.285v33.695c5.668-10.5 13.379-19.121 23.133-25.856 9.765-6.703 20.121-10.156 31.05-10.347l.286 35.59zM653.395 704.691h35.277v167.563h-35.277zM734.348 735.547v-30.242h131.054v31.804l-94.207 104.59h99.215v30.555H728.047v-34.34l91.672-102.367zM947.125 827.996c9.957 10.18 22.621 15.313 37.949 15.313 15.356 0 27.989-5.133 37.961-15.313 9.981-10.156 14.957-23.332 14.957-39.523 0-16.188-4.976-29.364-14.957-39.52-9.972-10.183-22.605-15.285-37.961-15.285-15.328 0-27.992 5.102-37.949 15.285-9.957 10.156-14.973 23.332-14.973 39.52 0 16.191 5.016 29.367 14.973 39.523m100.961 21.742c-16.824 16.668-37.82 25.028-63.012 25.028-25.195 0-46.195-8.36-62.972-25.028-16.797-16.691-25.227-37.117-25.227-61.265 0-24.157 8.43-44.59 25.227-61.266 16.777-16.691 37.777-25.023 62.972-25.023 25.192 0 46.188 8.332 63.012 25.023 16.805 16.676 25.18 37.109 25.18 61.266 0 24.148-8.375 44.574-25.18 61.265M1148.551 781.516v90.734h-35.258V704.688h35.258v30.582c5.668-10.325 13.5-18.403 23.472-24.297 9.985-5.86 20.719-8.793 32.293-8.793 18.903 0 34.164 5.754 45.821 17.308 11.668 11.543 17.484 28.254 17.484 50.059V872.25h-35.269v-91.949c0-30.91-12.813-46.324-38.418-46.324-12.215 0-22.813 4.043-31.825 12.132-9.043 8.055-13.558 19.895-13.558 35.407M621.938 596.371l-178.129-79.879 27.484-16.648zM709.34 594.73l90.723-56.613 14.152 9.992zM696.02 627.184c0 12.89-24.954 52.445-24.954 52.445s-21.64-39.555-21.64-52.445c0-12.848 10.414-23.297 23.281-23.297 12.898 0 23.313 10.449 23.313 23.297"/><path d="M1286.277 584.199h57.895v143.004h-30.711V611.402h-27.184zM1372.012 630.039v-45.84h103.347v24.141l-57.933 118.867h-34.774l55.258-115.613h-36.012v18.445z" fill="#00adef"/></g></svg>