<?xml version="1.0" encoding="UTF-8" standalone="no"?>
<svg
   xmlns:dc="http://purl.org/dc/elements/1.1/"
   xmlns:cc="http://creativecommons.org/ns#"
   xmlns:rdf="http://www.w3.org/1999/02/22-rdf-syntax-ns#"
   xmlns:svg="http://www.w3.org/2000/svg"
   xmlns="http://www.w3.org/2000/svg"
   xmlns:sodipodi="http://sodipodi.sourceforge.net/DTD/sodipodi-0.dtd"
   xmlns:inkscape="http://www.inkscape.org/namespaces/inkscape"
   version="1.1"
   id="svg969"
   xml:space="preserve"
   width="493.15918"
   height="203.25879"
   viewBox="0 0 493.15918 203.25879"
   sodipodi:docname="logo_horizon17_white.svg"
   inkscape:version="1.0.2-2 (e86c870879, 2021-01-15)"><metadata
     id="metadata975"><rdf:RDF><cc:Work
         rdf:about=""><dc:format>image/svg+xml</dc:format><dc:type
           rdf:resource="http://purl.org/dc/dcmitype/StillImage" /><dc:title></dc:title></cc:Work></rdf:RDF></metadata><defs
     id="defs973"><clipPath
       clipPathUnits="userSpaceOnUse"
       id="clipPath993"><path
         d="M 0,0 H 1536 V 1536 H 0 Z"
         id="path991" /></clipPath></defs><sodipodi:namedview
     pagecolor="#ffffff"
     bordercolor="#666666"
     borderopacity="1"
     objecttolerance="10"
     gridtolerance="10"
     guidetolerance="10"
     inkscape:pageopacity="0"
     inkscape:pageshadow="2"
     inkscape:window-width="1920"
     inkscape:window-height="1017"
     id="namedview971"
     showgrid="false"
     inkscape:zoom="1.1739077"
     inkscape:cx="63.645539"
     inkscape:cy="117.63111"
     inkscape:window-x="-8"
     inkscape:window-y="-8"
     inkscape:window-maximized="1"
     inkscape:current-layer="g977"
     lock-margins="true"
     fit-margin-top="20"
     fit-margin-left="20"
     fit-margin-right="20"
     fit-margin-bottom="20" /><g
     id="g977"
     inkscape:groupmode="layer"
     inkscape:label="logo_horizon17_negatyw"
     transform="matrix(1.3333333,0,0,1.3333333,-7.1009113,-142.70963)"><g
       id="g979"
       transform="scale(0.24414063)"><path
         d="M 83.254,872.254 V 652.059 h 37.172 v 95.464 h 109.308 v -95.464 h 37.172 V 872.254 H 229.734 V 782.176 H 120.426 v 90.078 z"
         style="fill:#00adef;fill-opacity:1;fill-rule:nonzero;stroke:none"
         id="path983" /><g
         id="g985"><g
           id="g987"><g
             id="g989"
             clip-path="url(#clipPath993)"><g
               id="g995"><path
                 d="m 362.176,827.996 c 9.992,10.18 22.64,15.313 37.961,15.313 15.336,0 27.976,-5.133 37.984,-15.313 9.938,-10.156 14.938,-23.332 14.938,-39.523 0,-16.188 -5,-29.364 -14.938,-39.52 -10.008,-10.183 -22.648,-15.285 -37.984,-15.285 -15.321,0 -27.969,5.102 -37.961,15.285 -9.965,10.156 -14.946,23.332 -14.946,39.52 0,16.191 4.981,29.367 14.946,39.523 m 100.961,21.742 c -16.805,16.668 -37.801,25.028 -63,25.028 -25.184,0 -46.207,-8.36 -62.992,-25.028 -16.797,-16.691 -25.2,-37.117 -25.2,-61.265 0,-24.157 8.403,-44.59 25.2,-61.266 16.785,-16.691 37.808,-25.023 62.992,-25.023 25.199,0 46.195,8.332 63,25.023 16.797,16.676 25.199,37.109 25.199,61.266 0,24.148 -8.402,44.574 -25.199,61.265"
                 style="fill:#000000;fill-opacity:1;fill-rule:nonzero;stroke:none"
                 id="path997" /><path
                 d="m 616.238,737.77 c -17.429,0 -30.547,5.668 -39.375,17.011 -8.836,11.344 -13.23,26.563 -13.23,45.641 V 872.25 H 528.348 V 704.688 h 35.285 v 33.695 c 5.668,-10.5 13.379,-19.121 23.133,-25.856 9.765,-6.703 20.121,-10.156 31.05,-10.347 l 0.286,35.59 z"
                 style="fill:#000000;fill-opacity:1;fill-rule:nonzero;stroke:none"
                 id="path999" /><path
                 d="m 653.395,704.691 h 35.277 v 167.563 h -35.277 z"
                 style="fill:#000000;fill-opacity:1;fill-rule:nonzero;stroke:none"
                 id="path1001" /><path
                 d="m 734.348,735.547 v -30.242 h 131.054 v 31.804 l -94.207,104.59 h 99.215 v 30.555 H 728.047 v -34.34 l 91.672,-102.367 z"
                 style="fill:#000000;fill-opacity:1;fill-rule:nonzero;stroke:none"
                 id="path1003" /><path
                 d="m 947.125,827.996 c 9.957,10.18 22.621,15.313 37.949,15.313 15.356,0 27.989,-5.133 37.961,-15.313 9.981,-10.156 14.957,-23.332 14.957,-39.523 0,-16.188 -4.976,-29.364 -14.957,-39.52 -9.972,-10.183 -22.605,-15.285 -37.961,-15.285 -15.328,0 -27.992,5.102 -37.949,15.285 -9.957,10.156 -14.973,23.332 -14.973,39.52 0,16.191 5.016,29.367 14.973,39.523 m 100.961,21.742 c -16.824,16.668 -37.82,25.028 -63.012,25.028 -25.195,0 -46.195,-8.36 -62.972,-25.028 -16.797,-16.691 -25.227,-37.117 -25.227,-61.265 0,-24.157 8.43,-44.59 25.227,-61.266 16.777,-16.691 37.777,-25.023 62.972,-25.023 25.192,0 46.188,8.332 63.012,25.023 16.805,16.676 25.18,37.109 25.18,61.266 0,24.148 -8.375,44.574 -25.18,61.265"
                 style="fill:#000000;fill-opacity:1;fill-rule:nonzero;stroke:none"
                 id="path1005" /><path
                 d="m 1148.551,781.516 v 90.734 h -35.258 V 704.688 h 35.258 v 30.582 c 5.668,-10.325 13.5,-18.403 23.472,-24.297 9.985,-5.86 20.719,-8.793 32.293,-8.793 18.903,0 34.164,5.754 45.821,17.308 11.668,11.543 17.484,28.254 17.484,50.059 V 872.25 h -35.269 v -91.949 c 0,-30.91 -12.813,-46.324 -38.418,-46.324 -12.215,0 -22.813,4.043 -31.825,12.132 -9.043,8.055 -13.558,19.895 -13.558,35.407"
                 style="fill:#000000;fill-opacity:1;fill-rule:nonzero;stroke:none"
                 id="path1007" /><path
                 d="M 621.938,596.371 443.809,516.492 471.293,499.844 Z"
                 style="fill:#000000;fill-opacity:1;fill-rule:nonzero;stroke:none"
                 id="path1009" /><path
                 d="m 709.34,594.73 90.723,-56.613 14.152,9.992 z"
                 style="fill:#000000;fill-opacity:1;fill-rule:nonzero;stroke:none"
                 id="path1011" /><path
                 d="m 696.02,627.184 c 0,12.89 -24.954,52.445 -24.954,52.445 0,0 -21.64,-39.555 -21.64,-52.445 0,-12.848 10.414,-23.297 23.281,-23.297 12.898,0 23.313,10.449 23.313,23.297"
                 style="fill:#000000;fill-opacity:1;fill-rule:nonzero;stroke:none"
                 id="path1013" /><path
                 d="m 1286.277,584.199 h 57.895 v 143.004 h -30.711 V 611.402 h -27.184 z"
                 style="fill:#00adef;fill-opacity:1;fill-rule:nonzero;stroke:none"
                 id="path1015" /><path
                 d="m 1372.012,630.039 v -45.84 h 103.347 v 24.141 l -57.933,118.867 h -34.774 l 55.258,-115.613 h -36.012 v 18.445 z"
                 style="fill:#00adef;fill-opacity:1;fill-rule:nonzero;stroke:none"
                 id="path1017" /></g></g></g></g><path
         d="m 726.367,941.234 h 11.172 l 17.938,49.313 17.828,-49.313 h 10.609 l -23.25,59.688 h -10.937 z"
         style="fill:#000000;fill-opacity:1;fill-rule:nonzero;stroke:none"
         id="path1019" /><path
         d="m 793.836,941.234 h 10.5 v 59.688 h -10.5 z m 5.187,-23.812 c 1.883,0 3.446,0.641 4.688,1.922 1.238,1.273 1.859,2.886 1.859,4.844 0,1.96 -0.621,3.578 -1.859,4.859 -1.242,1.273 -2.805,1.906 -4.688,1.906 -1.886,0 -3.449,-0.633 -4.687,-1.906 -1.242,-1.281 -1.859,-2.899 -1.859,-4.859 0,-1.958 0.617,-3.571 1.859,-4.844 1.238,-1.281 2.801,-1.922 4.687,-1.922 z"
         style="fill:#000000;fill-opacity:1;fill-rule:nonzero;stroke:none"
         id="path1021" /><path
         d="m 835.258,954.094 c 1.957,-4.289 4.738,-7.547 8.344,-9.766 3.613,-2.219 7.906,-3.363 12.875,-3.437 v 10.156 c -6.094,-0.227 -11.028,1.351 -14.797,4.734 -3.762,3.387 -5.903,7.938 -6.422,13.657 v 31.484 h -10.5 v -59.688 h 10.5 z"
         style="fill:#000000;fill-opacity:1;fill-rule:nonzero;stroke:none"
         id="path1023" /><path
         d="m 899.91,996.969 c -4.586,2.937 -9.246,4.406 -13.984,4.406 -4.742,0 -8.578,-1.41 -11.516,-4.234 -2.937,-2.821 -4.406,-7.094 -4.406,-12.813 v -33.062 h -8.453 v -8 h 8.453 v -16.032 h 10.609 v 16.032 h 18.282 v 8 h -18.282 v 31.156 c 0,3.305 0.598,5.672 1.797,7.109 1.207,1.43 3.016,2.141 5.422,2.141 2.863,0 5.953,-0.942 9.266,-2.828 z"
         style="fill:#000000;fill-opacity:1;fill-rule:nonzero;stroke:none"
         id="path1025" /><path
         d="m 965.473,941.234 v 59.688 h -10.61 v -12.641 c -3.906,8.5 -11.277,12.828 -22.109,12.985 -6.93,0 -12.352,-2.051 -16.266,-6.157 -3.906,-4.101 -5.859,-9.765 -5.859,-16.984 v -36.891 h 10.609 v 34.079 c 0,5.031 1.367,8.96 4.11,11.781 2.75,2.824 6.531,4.234 11.343,4.234 5.571,-0.07 9.993,-2.047 13.266,-5.922 3.27,-3.875 4.906,-8.82 4.906,-14.843 v -29.329 z"
         style="fill:#000000;fill-opacity:1;fill-rule:nonzero;stroke:none"
         id="path1027" /><path
         d="m 1022.352,1000.922 v -8.344 c -4.438,5.867 -11.399,8.797 -20.875,8.797 -4.137,0 -7.766,-0.785 -10.891,-2.359 -3.125,-1.582 -5.539,-3.766 -7.234,-6.547 -1.688,-2.789 -2.532,-5.914 -2.532,-9.375 0,-5.344 1.973,-9.571 5.922,-12.688 3.957,-3.125 9.469,-4.722 16.531,-4.797 h 18.969 v -2.828 c 0,-4.207 -1.304,-7.457 -3.906,-9.75 -2.594,-2.301 -6.371,-3.453 -11.328,-3.453 -6.024,0 -12.153,2.149 -18.391,6.438 l -4.406,-7.235 c 4.289,-2.781 8.258,-4.789 11.906,-6.031 3.645,-1.238 7.988,-1.859 13.031,-1.859 7.446,0 13.204,1.824 17.266,5.468 4.063,3.649 6.129,8.746 6.203,15.297 l 0.11,39.266 z m -18.735,-8.234 c 4.883,0 9.039,-1.18 12.469,-3.547 3.426,-2.375 5.477,-5.52 6.156,-9.438 v -5.984 h -17.5 c -4.742,0 -8.258,0.719 -10.547,2.156 -2.293,1.43 -3.437,3.684 -3.437,6.766 0,3.086 1.164,5.531 3.5,7.343 2.332,1.805 5.453,2.704 9.359,2.704 z"
         style="fill:#000000;fill-opacity:1;fill-rule:nonzero;stroke:none"
         id="path1029" /><path
         d="m 1052.02,917.188 h 10.5 v 83.734 h -10.5 z"
         style="fill:#000000;fill-opacity:1;fill-rule:nonzero;stroke:none"
         id="path1031" /><path
         d="m 1145.23,996.969 c -4.585,2.937 -9.246,4.406 -13.984,4.406 -4.742,0 -8.578,-1.41 -11.516,-4.234 -2.937,-2.821 -4.406,-7.094 -4.406,-12.813 v -33.062 h -8.453 v -8 h 8.453 v -16.032 h 10.61 v 16.032 h 18.281 v 8 h -18.281 v 31.156 c 0,3.305 0.597,5.672 1.796,7.109 1.208,1.43 3.016,2.141 5.422,2.141 2.864,0 5.953,-0.942 9.266,-2.828 z"
         style="fill:#000000;fill-opacity:1;fill-rule:nonzero;stroke:none"
         id="path1033" /><path
         d="m 1182.02,940.891 c 5.945,0 11.234,1.281 15.859,3.843 4.625,2.555 8.234,6.106 10.828,10.657 2.594,4.554 3.891,9.761 3.891,15.625 0,5.867 -1.297,11.093 -3.891,15.687 -2.594,4.594 -6.203,8.172 -10.828,10.735 -4.625,2.554 -9.914,3.828 -15.859,3.828 -6.024,0 -11.344,-1.274 -15.969,-3.828 -4.625,-2.563 -8.235,-6.118 -10.828,-10.672 -2.594,-4.551 -3.891,-9.801 -3.891,-15.75 0,-5.864 1.297,-11.071 3.891,-15.625 2.593,-4.551 6.203,-8.102 10.828,-10.657 4.625,-2.562 9.945,-3.843 15.969,-3.843 z m 0,9.14 c -3.918,0 -7.399,0.907 -10.438,2.719 -3.043,1.805 -5.414,4.305 -7.109,7.5 -1.688,3.188 -2.532,6.813 -2.532,10.875 0,4.148 0.844,7.84 2.532,11.078 1.695,3.231 4.066,5.731 7.109,7.5 3.039,1.762 6.52,2.641 10.438,2.641 3.832,0 7.269,-0.879 10.312,-2.641 3.051,-1.769 5.422,-4.269 7.109,-7.5 1.696,-3.238 2.547,-6.93 2.547,-11.078 0,-4.062 -0.851,-7.687 -2.547,-10.875 -1.687,-3.195 -4.058,-5.695 -7.109,-7.5 -3.043,-1.812 -6.48,-2.719 -10.312,-2.719 z"
         style="fill:#000000;fill-opacity:1;fill-rule:nonzero;stroke:none"
         id="path1035" /><path
         d="m 1280.082,941.234 v 59.688 h -10.609 v -12.641 c -3.907,8.5 -11.278,12.828 -22.11,12.985 -6.929,0 -12.351,-2.051 -16.265,-6.157 -3.907,-4.101 -5.86,-9.765 -5.86,-16.984 v -36.891 h 10.61 v 34.079 c 0,5.031 1.367,8.96 4.109,11.781 2.75,2.824 6.531,4.234 11.344,4.234 5.57,-0.07 9.992,-2.047 13.265,-5.922 3.27,-3.875 4.907,-8.82 4.907,-14.843 v -29.329 z"
         style="fill:#000000;fill-opacity:1;fill-rule:nonzero;stroke:none"
         id="path1037" /><path
         d="m 1311.004,954.094 c 1.957,-4.289 4.738,-7.547 8.344,-9.766 3.613,-2.219 7.906,-3.363 12.875,-3.437 v 10.156 c -6.094,-0.227 -11.028,1.351 -14.797,4.734 -3.762,3.387 -5.903,7.938 -6.422,13.657 v 31.484 h -10.5 v -59.688 h 10.5 z"
         style="fill:#000000;fill-opacity:1;fill-rule:nonzero;stroke:none"
         id="path1039" /><path
         d="m 1376.219,954.438 c -2.481,-1.508 -5.211,-2.711 -8.188,-3.61 -2.968,-0.906 -5.804,-1.359 -8.5,-1.359 -3.168,0 -5.711,0.586 -7.625,1.75 -1.918,1.168 -2.875,2.953 -2.875,5.359 0,2.406 1.071,4.231 3.219,5.469 2.145,1.242 5.395,2.5 9.75,3.781 4.145,1.211 7.531,2.418 10.156,3.625 2.633,1.199 4.875,2.965 6.719,5.297 1.844,2.324 2.766,5.406 2.766,9.25 0,5.637 -2.125,9.922 -6.375,12.859 -4.25,2.938 -9.539,4.407 -15.86,4.407 -4.437,0 -8.746,-0.711 -12.922,-2.141 -4.168,-1.437 -7.683,-3.473 -10.546,-6.109 l 3.953,-7.672 c 2.476,2.261 5.539,4.07 9.187,5.422 3.656,1.355 7.211,2.031 10.672,2.031 3.457,0 6.238,-0.641 8.344,-1.922 2.113,-1.281 3.172,-3.234 3.172,-5.859 0,-2.707 -1.118,-4.739 -3.344,-6.094 -2.219,-1.352 -5.586,-2.707 -10.094,-4.063 -3.992,-1.132 -7.246,-2.281 -9.765,-3.437 -2.512,-1.164 -4.653,-2.879 -6.422,-5.141 -1.774,-2.258 -2.657,-5.191 -2.657,-8.797 0,-5.57 2.032,-9.75 6.094,-12.531 4.063,-2.781 9.141,-4.172 15.235,-4.172 3.613,0 7.164,0.512 10.656,1.532 3.5,1.011 6.531,2.382 9.094,4.109 z"
         style="fill:#000000;fill-opacity:1;fill-rule:nonzero;stroke:none"
         id="path1041" /></g></g></svg>
