<svg xmlns="http://www.w3.org/2000/svg" width="493.159" height="203.259"><defs><clipPath clipPathUnits="userSpaceOnUse" id="prefix__a"><path d="M0 0h1536v1536H0z"/></clipPath></defs><path d="M20 141.227V69.55h12.1v31.076h35.582V69.549h12.1v71.678h-12.1v-29.322H32.1v29.322z" fill="#00adef"/><g clip-path="url(#prefix__a)" transform="translate(-7.1 -142.71) scale(.32552)"><path d="M362.176 827.996c9.992 10.18 22.64 15.313 37.961 15.313 15.336 0 27.976-5.133 37.984-15.313 9.938-10.156 14.938-23.332 14.938-39.523 0-16.188-5-29.364-14.938-39.52-10.008-10.183-22.648-15.285-37.984-15.285-15.321 0-27.969 5.102-37.961 15.285-9.965 10.156-14.946 23.332-14.946 39.52 0 16.191 4.981 29.367 14.946 39.523m100.961 21.742c-16.805 16.668-37.801 25.028-63 25.028-25.184 0-46.207-8.36-62.992-25.028-16.797-16.691-25.2-37.117-25.2-61.265 0-24.157 8.403-44.59 25.2-61.266 16.785-16.691 37.808-25.023 62.992-25.023 25.199 0 46.195 8.332 63 25.023 16.797 16.676 25.199 37.109 25.199 61.266 0 24.148-8.402 44.574-25.199 61.265M616.238 737.77c-17.429 0-30.547 5.668-39.375 17.011-8.836 11.344-13.23 26.563-13.23 45.641v71.828h-35.285V704.688h35.285v33.695c5.668-10.5 13.379-19.121 23.133-25.856 9.765-6.703 20.121-10.156 31.05-10.347l.286 35.59zM653.395 704.691h35.277v167.563h-35.277zM734.348 735.547v-30.242h131.054v31.804l-94.207 104.59h99.215v30.555H728.047v-34.34l91.672-102.367zM947.125 827.996c9.957 10.18 22.621 15.313 37.949 15.313 15.356 0 27.989-5.133 37.961-15.313 9.981-10.156 14.957-23.332 14.957-39.523 0-16.188-4.976-29.364-14.957-39.52-9.972-10.183-22.605-15.285-37.961-15.285-15.328 0-27.992 5.102-37.949 15.285-9.957 10.156-14.973 23.332-14.973 39.52 0 16.191 5.016 29.367 14.973 39.523m100.961 21.742c-16.824 16.668-37.82 25.028-63.012 25.028-25.195 0-46.195-8.36-62.972-25.028-16.797-16.691-25.227-37.117-25.227-61.265 0-24.157 8.43-44.59 25.227-61.266 16.777-16.691 37.777-25.023 62.972-25.023 25.192 0 46.188 8.332 63.012 25.023 16.805 16.676 25.18 37.109 25.18 61.266 0 24.148-8.375 44.574-25.18 61.265M1148.551 781.516v90.734h-35.258V704.688h35.258v30.582c5.668-10.325 13.5-18.403 23.472-24.297 9.985-5.86 20.719-8.793 32.293-8.793 18.903 0 34.164 5.754 45.821 17.308 11.668 11.543 17.484 28.254 17.484 50.059V872.25h-35.269v-91.949c0-30.91-12.813-46.324-38.418-46.324-12.215 0-22.813 4.043-31.825 12.132-9.043 8.055-13.558 19.895-13.558 35.407M621.938 596.371l-178.129-79.879 27.484-16.648zM709.34 594.73l90.723-56.613 14.152 9.992zM696.02 627.184c0 12.89-24.954 52.445-24.954 52.445s-21.64-39.555-21.64-52.445c0-12.848 10.414-23.297 23.281-23.297 12.898 0 23.313 10.449 23.313 23.297"/><path d="M1286.277 584.199h57.895v143.004h-30.711V611.402h-27.184zM1372.012 630.039v-45.84h103.347v24.141l-57.933 118.867h-34.774l55.258-115.613h-36.012v18.445z" fill="#00adef"/></g><path d="M229.347 163.682h3.636l5.84 16.052 5.803-16.052h3.453l-7.568 19.43h-3.56zM251.31 163.682h3.417v19.43h-3.418zm1.688-7.752c.613 0 1.121.209 1.526.626.403.414.605.94.605 1.577 0 .638-.202 1.165-.605 1.582-.405.414-.913.62-1.526.62-.614 0-1.123-.206-1.526-.62-.404-.417-.605-.944-.605-1.582 0-.638.2-1.163.605-1.577.403-.417.912-.626 1.526-.626zM264.793 167.868c.637-1.396 1.542-2.457 2.716-3.18 1.176-.722 2.574-1.094 4.191-1.118v3.306c-1.984-.074-3.59.44-4.817 1.541-1.224 1.103-1.921 2.584-2.09 4.446v10.248h-3.418v-19.43h3.418zM285.839 181.825c-1.493.956-3.01 1.434-4.553 1.434-1.543 0-2.792-.46-3.748-1.378-.956-.919-1.434-2.31-1.434-4.171v-10.763h-2.752v-2.604h2.752v-5.219h3.453v5.22h5.951v2.603h-5.951v10.142c0 1.076.195 1.847.585 2.314.393.466.982.697 1.765.697.932 0 1.938-.306 3.016-.92zM307.18 163.682v19.43h-3.453v-4.116c-1.272 2.767-3.671 4.176-7.197 4.227-2.256 0-4.02-.667-5.295-2.004-1.271-1.335-1.907-3.179-1.907-5.529v-12.008h3.453v11.093c0 1.638.445 2.917 1.338 3.835.895.92 2.126 1.378 3.693 1.378 1.813-.023 3.252-.666 4.318-1.927 1.064-1.262 1.597-2.872 1.597-4.832v-9.547zM325.696 183.111v-2.716c-1.445 1.91-3.71 2.864-6.795 2.864-1.347 0-2.528-.256-3.546-.768-1.017-.515-1.803-1.226-2.354-2.131-.55-.908-.825-1.925-.825-3.052 0-1.74.643-3.116 1.928-4.13 1.288-1.018 3.083-1.537 5.381-1.562h6.175v-.92c0-1.37-.424-2.428-1.271-3.174-.845-.75-2.074-1.124-3.688-1.124-1.96 0-3.956.7-5.986 2.095l-1.435-2.355c1.396-.905 2.688-1.559 3.876-1.963 1.186-.403 2.6-.605 4.242-.605 2.424 0 4.298.594 5.62 1.78 1.323 1.188 1.995 2.847 2.02 4.98l.035 12.781zm-6.099-2.68c1.59 0 2.943-.384 4.06-1.155 1.114-.773 1.782-1.797 2.003-3.072v-1.948h-5.696c-1.544 0-2.689.234-3.434.702-.746.466-1.119 1.2-1.119 2.202 0 1.005.38 1.8 1.14 2.39.759.588 1.775.881 3.046.881zM335.354 155.854h3.417v27.257h-3.417zM365.695 181.825c-1.492.956-3.01 1.434-4.552 1.434-1.543 0-2.792-.46-3.748-1.378-.957-.919-1.435-2.31-1.435-4.171v-10.763h-2.751v-2.604h2.751v-5.219h3.454v5.22h5.95v2.603h-5.95v10.142c0 1.076.194 1.847.585 2.314.393.466.981.697 1.765.697.932 0 1.937-.306 3.016-.92zM377.671 163.57c1.935 0 3.657.417 5.163 1.251a8.97 8.97 0 013.524 3.469c.845 1.482 1.267 3.177 1.267 5.086 0 1.91-.422 3.611-1.267 5.107a8.958 8.958 0 01-3.524 3.494c-1.506.832-3.228 1.246-5.163 1.246-1.96 0-3.692-.414-5.198-1.246a8.99 8.99 0 01-3.525-3.474c-.844-1.481-1.266-3.19-1.266-5.127 0-1.909.422-3.604 1.266-5.086a8.968 8.968 0 013.525-3.469c1.506-.834 3.237-1.251 5.198-1.251zm0 2.975c-1.275 0-2.408.295-3.398.885a6.107 6.107 0 00-2.314 2.442c-.55 1.038-.824 2.218-.824 3.54 0 1.35.275 2.552.824 3.606.552 1.052 1.324 1.865 2.314 2.441.99.574 2.123.86 3.398.86 1.248 0 2.366-.286 3.357-.86a5.927 5.927 0 002.314-2.441c.552-1.054.83-2.256.83-3.606 0-1.322-.278-2.502-.83-3.54a6.072 6.072 0 00-2.314-2.442c-.99-.59-2.11-.885-3.357-.885zM409.592 163.682v19.43h-3.453v-4.116c-1.272 2.767-3.671 4.176-7.197 4.227-2.256 0-4.02-.667-5.295-2.004-1.272-1.335-1.907-3.179-1.907-5.529v-12.008h3.453v11.093c0 1.638.445 2.917 1.338 3.835.895.92 2.126 1.378 3.693 1.378 1.813-.023 3.252-.666 4.318-1.927 1.064-1.262 1.597-2.872 1.597-4.832v-9.547zM419.658 167.868c.637-1.396 1.543-2.457 2.716-3.18 1.176-.722 2.574-1.094 4.191-1.118v3.306c-1.983-.074-3.59.44-4.816 1.541-1.225 1.103-1.922 2.584-2.09 4.446v10.248h-3.419v-19.43h3.418zM440.887 167.98a11.515 11.515 0 00-2.665-1.175c-.966-.295-1.89-.443-2.767-.443-1.031 0-1.86.191-2.482.57-.625.38-.936.961-.936 1.744 0 .784.348 1.378 1.048 1.78.698.405 1.756.815 3.173 1.232 1.35.394 2.452.787 3.306 1.18.858.39 1.587.965 2.188 1.724.6.756.9 1.76.9 3.01 0 1.836-.692 3.23-2.075 4.187-1.384.956-3.105 1.434-5.163 1.434-1.444 0-2.847-.231-4.206-.697-1.357-.467-2.501-1.13-3.433-1.988l1.287-2.498c.806.736 1.803 1.325 2.99 1.765 1.19.441 2.347.661 3.474.661 1.125 0 2.03-.208 2.716-.625.688-.417 1.033-1.053 1.033-1.907 0-.882-.364-1.543-1.089-1.984-.722-.44-1.818-.881-3.286-1.323-1.3-.368-2.358-.742-3.178-1.119a5.637 5.637 0 01-2.09-1.673c-.578-.735-.866-1.69-.866-2.864 0-1.813.662-3.173 1.984-4.079 1.323-.905 2.976-1.358 4.96-1.358 1.175 0 2.331.167 3.468.499 1.14.329 2.126.775 2.96 1.337z"/></svg>