<svg height="163.839" viewBox="0 0 258 258" width="163.839" xmlns="http://www.w3.org/2000/svg" shape-rendering="geometricPrecision" text-rendering="geometricPrecision" image-rendering="optimizeQuality" fill-rule="evenodd" clip-rule="evenodd"><rect height="258" rx="28" ry="28" width="258" fill="#3b5999"/><path d="M84 106h27v-5c0-8-1-18 0-26 1-19 11-31 37-32l26 1v28c-11 0-30-4-32 10v24h30l-3 31h-27v78h-31v-78l-27-1v-30z" fill="#fff"/><path d="M258 128l-84-84v28c-11 0-30-4-32 10v24h30l-3 31h-27v78h-31l43 43h76l28-28V128z" fill="#30487c"/></svg>